# xmcd
#
# Track frame offsets: 
#        150
#        67533
#        109148
#        164378
#        202375
#
# Disc length: 2800 seconds
#
# Revision: 0
# Processed by: cddbd v1.5.2PL0 Copyright (c) Steve Scherf et al.
# Submitted via: ExactAudioCopy v1.1
#
DISCID=400aee05
DTITLE=Sempiternal Dusk - Sempiternal Dusk
DYEAR=2014
DGENRE=Death Metal
TTITLE0=Moon Beneath Hook Cross
TTITLE1=Streams of Night
TTITLE2=Upon the Gallows at Perihelion
TTITLE3=Seclusion of the Bereaved
TTITLE4=Urn of Dawn
EXTD=
EXTT0=
EXTT1=
EXTT2=
EXTT3=
EXTT4=
PLAYORDER=
